<svg width="24" height="24" viewBox="0 0 24 24" fill="none" xmlns="http://www.w3.org/2000/svg">
<path fill-rule="evenodd" clip-rule="evenodd" d="M6.80391 15.0001L6.8039 15C6.13923 13.8488 5.14728 12.9993 4.01556 12.5041C4.00525 12.3376 4 12.1696 4 12.0001C4 11.8305 4.00524 11.6624 4.01555 11.496C5.14728 11.0007 6.13922 10.1513 6.80388 9.00003C7.4687 7.84855 7.70832 6.56448 7.57115 5.33657C7.85002 5.15076 8.14103 4.98211 8.44265 4.83206C9.43765 5.56528 10.6699 6.00008 12 6.00008C13.3301 6.00008 14.5623 5.56528 15.5573 4.83206C15.859 4.98212 16.15 5.15078 16.4289 5.3366C16.2917 6.56453 16.5314 7.84857 17.1962 9.00001C17.8608 10.1513 18.8528 11.0007 19.9844 11.4959C19.9948 11.6624 20 11.8305 20 12.0001C20 12.1696 19.9948 12.3376 19.9844 12.5041C18.8528 12.9993 17.8608 13.8488 17.1962 15C16.5313 16.1515 16.2917 17.4356 16.4289 18.6635C16.15 18.8494 15.859 19.018 15.5573 19.1681C14.5623 18.4349 13.3301 18.0001 12 18.0001C10.6699 18.0001 9.43765 18.4349 8.44266 19.1681C8.14103 19.0181 7.85003 18.8494 7.57117 18.6636C7.70837 17.4356 7.46868 16.1515 6.80391 15.0001ZM21.1164 9.79114C20.2252 9.49157 19.4353 8.87832 18.9282 8.00002C18.4213 7.12195 18.285 6.13156 18.471 5.2101C18.5535 4.80141 18.4629 4.35762 18.1338 4.10165C17.4189 3.54565 16.6265 3.08459 15.7756 2.73739C15.3892 2.57974 14.9592 2.72344 14.6463 2.99963C13.9411 3.62226 13.0147 4.00008 12 4.00008C10.9853 4.00008 10.0589 3.62226 9.35366 2.99963C9.04085 2.72344 8.61078 2.57974 8.22441 2.73739C7.37349 3.08459 6.58112 3.54563 5.86622 4.10159C5.53708 4.35755 5.44647 4.80136 5.52897 5.21007C5.71498 6.13153 5.5788 7.12195 5.07184 8.00002C4.56476 8.87833 3.77486 9.49158 2.88358 9.79115C2.4877 9.92421 2.14812 10.2253 2.09181 10.6391C2.03126 11.0841 2 11.5385 2 12.0001C2 12.4616 2.03128 12.9159 2.09182 13.3609C2.14813 13.7747 2.48772 14.0758 2.88363 14.2089C3.77489 14.5085 4.56477 15.1217 5.07184 16C5.5788 16.8781 5.71502 17.8686 5.529 18.79C5.44649 19.1987 5.53708 19.6426 5.86622 19.8985C6.58112 20.4545 7.37349 20.9156 8.22442 21.2628C8.61078 21.4204 9.04085 21.2767 9.35366 21.0005C10.0589 20.3779 10.9853 20.0001 12 20.0001C13.0147 20.0001 13.9411 20.3779 14.6463 21.0005C14.9592 21.2767 15.3892 21.4204 15.7756 21.2628C16.6265 20.9156 17.419 20.4545 18.1339 19.8985C18.463 19.6425 18.5536 19.1987 18.4711 18.79C18.2851 17.8685 18.4213 16.8781 18.9282 16C19.4353 15.1217 20.2252 14.5085 21.1164 14.2089C21.5123 14.0758 21.8519 13.7747 21.9082 13.3609C21.9687 12.9159 22 12.4616 22 12.0001C22 11.5385 21.9687 11.0841 21.9082 10.6391C21.8519 10.2253 21.5123 9.92421 21.1164 9.79114ZM14 12C14 13.1046 13.1046 14 12 14C10.8954 14 10 13.1046 10 12C10 10.8954 10.8954 10 12 10C13.1046 10 14 10.8954 14 12ZM16 12C16 14.2091 14.2091 16 12 16C9.79086 16 8 14.2091 8 12C8 9.79086 9.79086 8 12 8C14.2091 8 16 9.79086 16 12Z" fill="#282828"/>
</svg>
